<svg width="800" height="211" viewBox="0 0 800 211" fill="none" xmlns="http://www.w3.org/2000/svg">
<g filter="url(#filter0_d)">
<rect x="164" y="32" width="473" height="146" rx="5" fill="#FCF3D9"/>
<path d="M259.113 77.273L252.249 59.71C252.093 59.32 251.915 59.021 251.716 58.813C251.525 58.605 251.256 58.4533 250.91 58.358C250.563 58.254 250.086 58.1803 249.48 58.137V57.201H260.075V58.137C259.243 58.1977 258.632 58.2757 258.242 58.371C257.86 58.4663 257.639 58.6267 257.579 58.852C257.518 59.0773 257.557 59.4153 257.696 59.866L261.154 70.461H261.31L264.573 61.946L263.702 59.71C263.546 59.32 263.368 59.021 263.169 58.813C262.969 58.605 262.696 58.4533 262.35 58.358C262.003 58.254 261.526 58.1803 260.92 58.137V57.201H271.515V58.137C270.336 58.1977 269.586 58.345 269.266 58.579C268.954 58.8043 268.915 59.2333 269.149 59.866L272.607 70.461L272.919 70.513L276.403 60.958C276.637 60.3253 276.719 59.827 276.65 59.463C276.58 59.0903 276.32 58.8043 275.87 58.605C275.419 58.4057 274.734 58.2497 273.816 58.137V57.201H281.772V58.137C281.026 58.2497 280.437 58.397 280.004 58.579C279.57 58.761 279.219 59.0383 278.951 59.411C278.691 59.775 278.426 60.3037 278.158 60.997L271.814 77.273H270.566L265.457 64.221L260.348 77.273H259.113ZM282.142 77V76.051L284.339 75.505V58.644L282.142 58.137V57.201H290.917V58.137L288.759 58.644V75.505L290.917 76.051V77H282.142ZM293.085 77V76.051L295.282 75.544V58.618L293.085 58.137V57.201H302.12V58.137L299.702 58.644V75.531H306.098C306.609 74.8203 307.047 74.1053 307.411 73.386C307.784 72.658 308.13 71.8563 308.451 70.981H309.79L308.698 77H293.085ZM311.061 77V76.051L313.258 75.544V58.618L311.061 58.137V57.201H320.096V58.137L317.678 58.644V75.531H324.074C324.586 74.8203 325.023 74.1053 325.387 73.386C325.76 72.658 326.107 71.8563 326.427 70.981H327.766L326.674 77H311.061ZM329.038 77V76.051L331.235 75.505V58.644L329.038 58.137V57.201H337.813V58.137L335.655 58.644V75.505L337.813 76.051V77H329.038ZM338.395 77V76.051C339.201 75.9123 339.808 75.7563 340.215 75.583C340.631 75.4097 340.956 75.1453 341.19 74.79C341.433 74.426 341.689 73.8973 341.957 73.204L346.819 60.789L345.636 58.137L349.471 56.681L356.829 74.491C356.994 74.8723 357.172 75.1713 357.362 75.388C357.553 75.596 357.822 75.7477 358.168 75.843C358.515 75.9383 359 76.0077 359.624 76.051V77H349.016V76.051C350.134 76.0163 350.875 75.8907 351.239 75.674C351.612 75.4573 351.629 74.92 351.291 74.062L350.264 71.28H344.492L343.738 73.243C343.522 73.867 343.444 74.361 343.504 74.725C343.574 75.0803 343.834 75.3577 344.284 75.557C344.735 75.7477 345.424 75.9123 346.351 76.051V77H338.395ZM347.391 63.727L345.051 69.824H349.731L347.495 63.727H347.391ZM376.757 77.273L364.082 61.296V75.544L366.344 76.051V77H360.013V76.051L362.301 75.544V58.618L360.026 58.137V57.201H367.007L376.757 69.408V58.618L374.469 58.137V57.201H380.813V58.137L378.512 58.618V77.273H376.757ZM389.214 77V76.051L391.411 75.505V58.644L389.214 58.137V57.201H397.989V58.137L395.831 58.644V66.301L402.006 59.671C402.144 59.5237 402.235 59.3807 402.279 59.242C402.331 59.0947 402.357 58.9647 402.357 58.852C402.357 58.41 401.698 58.163 400.381 58.111V57.201H407.778V58.137C406.963 58.267 406.33 58.397 405.88 58.527C405.429 58.6483 405.065 58.8043 404.788 58.995C404.519 59.177 404.242 59.424 403.956 59.736L399.432 64.676L407.245 75.544L409.598 76.051V77H402.734L396.403 67.952L395.831 68.576V75.505L397.989 76.051V77H389.214ZM409.983 77V76.051L412.18 75.479V58.683L409.983 58.137V57.201H419.265C420.617 57.201 421.809 57.4177 422.84 57.851C423.872 58.2757 424.678 58.9083 425.258 59.749C425.839 60.581 426.129 61.608 426.129 62.83C426.129 64.078 425.813 65.1223 425.18 65.963C424.556 66.8037 423.677 67.4277 422.541 67.835L427.494 75.544L429.847 76.051V77H422.827L417.64 68.381H416.6V75.479L419.538 76.051V77H409.983ZM416.6 66.99H416.964C417.892 66.99 418.641 66.8643 419.213 66.613C419.785 66.3617 420.249 66.0237 420.604 65.599C420.986 65.1743 421.254 64.702 421.41 64.182C421.566 63.6533 421.644 63.116 421.644 62.57C421.644 61.6427 421.436 60.8713 421.02 60.256C420.604 59.632 420.063 59.1857 419.395 58.917C419.101 58.7957 418.78 58.7133 418.433 58.67C418.095 58.618 417.662 58.592 417.133 58.592H416.6V66.99ZM439.387 77.273C437.844 77.273 436.475 77.0347 435.279 76.558C434.083 76.0813 433.147 75.3967 432.471 74.504C432.072 74.01 431.786 73.425 431.613 72.749C431.44 72.073 431.353 71.1977 431.353 70.123V58.618L429.182 58.137V57.201H438.1V58.137L435.838 58.618V70.123C435.838 71.8737 436.228 73.2343 437.008 74.205C437.788 75.167 438.893 75.648 440.323 75.648C441.918 75.648 443.096 75.115 443.859 74.049C444.258 73.4943 444.548 72.7663 444.73 71.865C444.912 70.955 445.003 69.7547 445.003 68.264V58.618L442.728 58.137V57.201H449.059V58.137L446.784 58.618V69.72C446.784 70.6993 446.68 71.5963 446.472 72.411C446.273 73.217 445.982 73.9233 445.601 74.53C444.414 76.3587 442.342 77.273 439.387 77.273ZM450.71 77V76.051L452.907 75.544V58.618L450.71 58.137V57.201H466.453L466.934 62.856H465.868C465.643 62.18 465.365 61.478 465.036 60.75C464.707 60.022 464.321 59.32 463.879 58.644H457.327V65.833H460.564C460.859 65.3477 461.093 64.8623 461.266 64.377C461.439 63.883 461.578 63.402 461.682 62.934H462.761V70.123H461.682C461.578 69.655 461.435 69.174 461.253 68.68C461.071 68.186 460.841 67.7007 460.564 67.224H457.327V75.531H463.723C464.286 74.777 464.741 74.0187 465.088 73.256C465.435 72.4933 465.764 71.735 466.076 70.981H467.415L466.323 77H450.71ZM479.612 77.273C477.61 77.273 475.855 76.8613 474.347 76.038C472.848 75.2147 471.682 74.062 470.85 72.58C470.018 71.098 469.602 69.3733 469.602 67.406C469.602 65.872 469.854 64.4637 470.356 63.181C470.859 61.8983 471.57 60.7933 472.488 59.866C473.407 58.93 474.495 58.2063 475.751 57.695C477.017 57.1837 478.408 56.928 479.924 56.928C481.068 56.928 482.143 57.071 483.148 57.357C484.162 57.6343 484.981 58.02 485.605 58.514H485.709L486.84 57.201H487.672V63.493H486.515C485.926 62.2623 485.332 61.283 484.734 60.555C484.136 59.827 483.486 59.3027 482.784 58.982C482.091 58.6527 481.294 58.488 480.392 58.488C476.492 58.488 474.542 61.426 474.542 67.302C474.542 70.2573 474.954 72.411 475.777 73.763C476.601 75.1063 477.879 75.778 479.612 75.778C480.358 75.778 481.034 75.6437 481.64 75.375C482.247 75.1063 482.702 74.7467 483.005 74.296C483.127 74.1227 483.205 73.9407 483.239 73.75C483.274 73.5593 483.291 73.2647 483.291 72.866V68.511L480.977 68.017V67.081H489.999V68.017L487.711 68.511V74.907C487.174 75.349 486.459 75.752 485.566 76.116C484.674 76.4713 483.707 76.753 482.667 76.961C481.627 77.169 480.609 77.273 479.612 77.273ZM491.538 77V76.051L493.735 75.544V58.618L491.538 58.137V57.201H507.281L507.762 62.856H506.696C506.471 62.18 506.193 61.478 505.864 60.75C505.535 60.022 505.149 59.32 504.707 58.644H498.155V65.833H501.392C501.687 65.3477 501.921 64.8623 502.094 64.377C502.267 63.883 502.406 63.402 502.51 62.934H503.589V70.123H502.51C502.406 69.655 502.263 69.174 502.081 68.68C501.899 68.186 501.669 67.7007 501.392 67.224H498.155V75.531H504.551C505.114 74.777 505.569 74.0187 505.916 73.256C506.263 72.4933 506.592 71.735 506.904 70.981H508.243L507.151 77H491.538ZM510.352 77V76.051L512.549 75.479V58.683L510.352 58.137V57.201H519.634C520.986 57.201 522.178 57.4177 523.209 57.851C524.241 58.2757 525.047 58.9083 525.627 59.749C526.208 60.581 526.498 61.608 526.498 62.83C526.498 64.078 526.182 65.1223 525.549 65.963C524.925 66.8037 524.046 67.4277 522.91 67.835L527.863 75.544L530.216 76.051V77H523.196L518.009 68.381H516.969V75.479L519.907 76.051V77H510.352ZM516.969 66.99H517.333C518.261 66.99 519.01 66.8643 519.582 66.613C520.154 66.3617 520.618 66.0237 520.973 65.599C521.355 65.1743 521.623 64.702 521.779 64.182C521.935 63.6533 522.013 63.116 522.013 62.57C522.013 61.6427 521.805 60.8713 521.389 60.256C520.973 59.632 520.432 59.1857 519.764 58.917C519.47 58.7957 519.149 58.7133 518.802 58.67C518.464 58.618 518.031 58.592 517.502 58.592H516.969V66.99Z" fill="black"/>
<path d="M299.643 116V115.52L301.343 115.12V101.64L299.643 101.25V100.77H305.873C306.926 100.77 307.856 100.947 308.663 101.3C309.47 101.647 310.1 102.157 310.553 102.83C311.006 103.497 311.233 104.317 311.233 105.29C311.233 106.65 310.726 107.69 309.713 108.41C308.7 109.13 307.316 109.49 305.563 109.49H303.593V115.12L305.873 115.52V116H299.643ZM303.593 108.69H304.903C305.703 108.69 306.34 108.6 306.813 108.42C307.293 108.233 307.676 107.977 307.963 107.65C308.263 107.31 308.47 106.923 308.583 106.49C308.703 106.05 308.763 105.587 308.763 105.1C308.763 104.28 308.616 103.597 308.323 103.05C308.03 102.503 307.616 102.113 307.083 101.88C306.676 101.68 306.063 101.58 305.243 101.58H303.593V108.69ZM312.71 116V115.52L314.41 115.12V101.63L312.71 101.25V100.77H323.87L324.22 105.12H323.69C323.53 104.56 323.333 103.973 323.1 103.36C322.873 102.74 322.593 102.15 322.26 101.59H316.66V107.55H320.06C320.253 107.157 320.406 106.763 320.52 106.37C320.64 105.97 320.736 105.577 320.81 105.19H321.33V110.74H320.81C320.676 109.92 320.426 109.133 320.06 108.38H316.66V115.17H322.16C322.553 114.53 322.873 113.897 323.12 113.27C323.373 112.643 323.613 112.01 323.84 111.37H324.54L323.79 116H312.71ZM326.499 116V115.5L328.199 115.12V101.63L326.499 101.25V100.77H331.489C332.555 100.77 333.472 100.817 334.239 100.91C335.012 101.003 335.685 101.157 336.259 101.37C336.839 101.577 337.362 101.857 337.829 102.21C338.735 102.883 339.435 103.76 339.929 104.84C340.422 105.913 340.669 107.103 340.669 108.41C340.669 109.757 340.405 110.997 339.879 112.13C339.352 113.257 338.625 114.157 337.699 114.83C337.112 115.25 336.472 115.55 335.779 115.73C335.085 115.91 334.239 116 333.239 116H326.499ZM332.499 115.21C333.445 115.21 334.222 115.09 334.829 114.85C335.435 114.603 335.972 114.2 336.439 113.64C336.952 113 337.342 112.217 337.609 111.29C337.882 110.357 338.019 109.327 338.019 108.2C338.019 105.933 337.479 104.21 336.399 103.03C335.912 102.517 335.332 102.15 334.659 101.93C333.985 101.703 333.112 101.59 332.039 101.59H330.449V114.02C330.449 114.467 330.599 114.777 330.899 114.95C331.199 115.123 331.732 115.21 332.499 115.21ZM342.495 116V115.52L344.195 115.12V101.64L342.495 101.25V100.77H348.625C349.658 100.77 350.571 100.937 351.365 101.27C352.165 101.597 352.788 102.083 353.235 102.73C353.688 103.37 353.915 104.16 353.915 105.1C353.915 106.08 353.628 106.887 353.055 107.52C352.488 108.153 351.688 108.597 350.655 108.85L354.825 115.12L357.015 115.52V116H352.575L348.195 109.11H346.445V115.12L348.695 115.52V116H342.495ZM346.445 108.3H347.605C348.418 108.3 349.058 108.203 349.525 108.01C349.998 107.817 350.381 107.557 350.675 107.23C350.968 106.903 351.175 106.54 351.295 106.14C351.421 105.733 351.485 105.32 351.485 104.9C351.485 104.107 351.325 103.453 351.005 102.94C350.685 102.427 350.241 102.057 349.675 101.83C349.448 101.737 349.198 101.673 348.925 101.64C348.651 101.6 348.308 101.58 347.895 101.58H346.445V108.3ZM357.124 116V115.52L358.824 115.12V101.63L357.124 101.25V100.77H368.284L368.634 105.12H368.104C367.944 104.56 367.747 103.973 367.514 103.36C367.287 102.74 367.007 102.15 366.674 101.59H361.074V107.55H364.474C364.667 107.157 364.82 106.763 364.934 106.37C365.054 105.97 365.15 105.577 365.224 105.19H365.744V110.74H365.224C365.09 109.92 364.84 109.133 364.474 108.38H361.074V115.17H366.574C366.967 114.53 367.287 113.897 367.534 113.27C367.787 112.643 368.027 112.01 368.254 111.37H368.954L368.204 116H357.124ZM370.853 116V115.52L372.633 115.12V101.63L370.853 101.25V100.77H376.633V101.25L374.883 101.63V115.12L376.633 115.52V116H370.853ZM378.452 116V115.52L380.152 115.12V101.64L378.452 101.25V100.77H384.582C385.615 100.77 386.528 100.937 387.322 101.27C388.122 101.597 388.745 102.083 389.192 102.73C389.645 103.37 389.872 104.16 389.872 105.1C389.872 106.08 389.585 106.887 389.012 107.52C388.445 108.153 387.645 108.597 386.612 108.85L390.782 115.12L392.972 115.52V116H388.532L384.152 109.11H382.402V115.12L384.652 115.52V116H378.452ZM382.402 108.3H383.562C384.375 108.3 385.015 108.203 385.482 108.01C385.955 107.817 386.338 107.557 386.632 107.23C386.925 106.903 387.132 106.54 387.252 106.14C387.378 105.733 387.442 105.32 387.442 104.9C387.442 104.107 387.282 103.453 386.962 102.94C386.642 102.427 386.198 102.057 385.632 101.83C385.405 101.737 385.155 101.673 384.882 101.64C384.608 101.6 384.265 101.58 383.852 101.58H382.402V108.3ZM400.236 116.21C399.182 116.21 398.212 116.013 397.326 115.62C396.446 115.22 395.679 114.667 395.026 113.96C394.379 113.247 393.876 112.417 393.516 111.47C393.162 110.517 392.986 109.487 392.986 108.38C392.986 107.267 393.162 106.237 393.516 105.29C393.876 104.343 394.379 103.517 395.026 102.81C395.679 102.097 396.446 101.543 397.326 101.15C398.212 100.757 399.182 100.56 400.236 100.56C401.289 100.56 402.259 100.757 403.146 101.15C404.032 101.543 404.799 102.097 405.446 102.81C406.099 103.517 406.606 104.343 406.966 105.29C407.326 106.237 407.506 107.267 407.506 108.38C407.506 109.487 407.326 110.517 406.966 111.47C406.606 112.417 406.099 113.247 405.446 113.96C404.799 114.667 404.032 115.22 403.146 115.62C402.259 116.013 401.289 116.21 400.236 116.21ZM400.236 115.27C401.229 115.27 402.066 114.98 402.746 114.4C403.426 113.82 403.942 113.01 404.296 111.97C404.649 110.93 404.826 109.717 404.826 108.33C404.826 106.957 404.652 105.76 404.306 104.74C403.959 103.713 403.446 102.917 402.766 102.35C402.086 101.777 401.249 101.49 400.256 101.49C399.262 101.49 398.422 101.777 397.736 102.35C397.056 102.923 396.539 103.727 396.186 104.76C395.839 105.787 395.666 106.99 395.666 108.37C395.666 109.743 395.839 110.95 396.186 111.99C396.539 113.023 397.056 113.83 397.736 114.41C398.416 114.983 399.249 115.27 400.236 115.27ZM414.819 116V115.5L416.519 115.12V101.63L414.819 101.25V100.77H419.809C420.876 100.77 421.792 100.817 422.559 100.91C423.332 101.003 424.006 101.157 424.579 101.37C425.159 101.577 425.682 101.857 426.149 102.21C427.056 102.883 427.756 103.76 428.249 104.84C428.742 105.913 428.989 107.103 428.989 108.41C428.989 109.757 428.726 110.997 428.199 112.13C427.672 113.257 426.946 114.157 426.019 114.83C425.432 115.25 424.792 115.55 424.099 115.73C423.406 115.91 422.559 116 421.559 116H414.819ZM420.819 115.21C421.766 115.21 422.542 115.09 423.149 114.85C423.756 114.603 424.292 114.2 424.759 113.64C425.272 113 425.662 112.217 425.929 111.29C426.202 110.357 426.339 109.327 426.339 108.2C426.339 105.933 425.799 104.21 424.719 103.03C424.232 102.517 423.652 102.15 422.979 101.93C422.306 101.703 421.432 101.59 420.359 101.59H418.769V114.02C418.769 114.467 418.919 114.777 419.219 114.95C419.519 115.123 420.052 115.21 420.819 115.21ZM430.755 116V115.52L432.535 115.12V101.63L430.755 101.25V100.77H436.535V101.25L434.785 101.63V115.12L436.535 115.52V116H430.755ZM445.509 116.21C444.089 116.21 442.833 115.887 441.739 115.24C440.653 114.587 439.799 113.683 439.179 112.53C438.566 111.377 438.259 110.053 438.259 108.56C438.259 107.407 438.446 106.347 438.819 105.38C439.193 104.407 439.716 103.56 440.389 102.84C441.063 102.113 441.856 101.553 442.769 101.16C443.683 100.76 444.679 100.56 445.759 100.56C446.539 100.56 447.269 100.667 447.949 100.88C448.629 101.093 449.193 101.393 449.639 101.78H449.709L450.749 100.77H451.209V105.36H450.699C450.273 104.4 449.839 103.64 449.399 103.08C448.959 102.513 448.469 102.107 447.929 101.86C447.396 101.613 446.763 101.49 446.029 101.49C444.363 101.49 443.103 102.087 442.249 103.28C441.396 104.467 440.969 106.223 440.969 108.55C440.969 113.023 442.583 115.26 445.809 115.26C446.443 115.26 447.006 115.16 447.499 114.96C447.993 114.753 448.359 114.45 448.599 114.05C448.673 113.957 448.719 113.847 448.739 113.72C448.759 113.587 448.769 113.353 448.769 113.02V109.23L446.989 108.85V108.37H452.789V108.85L451.029 109.23V114.39C450.656 114.743 450.169 115.057 449.569 115.33C448.969 115.603 448.316 115.82 447.609 115.98C446.903 116.133 446.203 116.21 445.509 116.21ZM454.193 116V115.52L455.973 115.12V101.63L454.193 101.25V100.77H459.973V101.25L458.223 101.63V115.12L459.973 115.52V116H454.193ZM465.042 116V115.52L467.252 115.12V101.59H463.372C462.945 102.157 462.582 102.75 462.282 103.37C461.988 103.99 461.745 104.58 461.552 105.14H461.032L461.762 100.77H474.922L475.652 105.14H475.142C474.948 104.58 474.702 103.99 474.402 103.37C474.108 102.75 473.748 102.157 473.322 101.59H469.502V115.12L471.672 115.52V116H465.042ZM473.907 116V115.52C474.594 115.407 475.111 115.27 475.457 115.11C475.804 114.943 476.064 114.72 476.237 114.44C476.411 114.153 476.581 113.777 476.747 113.31L480.577 102.72L480.017 101.45L482.097 100.37L487.377 114.3C487.491 114.607 487.614 114.84 487.747 115C487.887 115.16 488.084 115.277 488.337 115.35C488.591 115.423 488.947 115.48 489.407 115.52V116H482.867V115.52C483.514 115.48 483.997 115.433 484.317 115.38C484.637 115.32 484.821 115.19 484.867 114.99C484.914 114.783 484.854 114.447 484.687 113.98L483.437 110.56H478.707L477.637 113.54C477.417 114.147 477.441 114.593 477.707 114.88C477.981 115.16 478.591 115.373 479.537 115.52V116H473.907ZM481.027 104.11L479.007 109.72H483.137L481.087 104.11H481.027ZM490.131 116V115.52L491.831 115.12V101.63L490.131 101.25V100.77H495.961V101.25L494.081 101.63V115.17H499.691C500.051 114.563 500.361 113.953 500.621 113.34C500.881 112.727 501.131 112.04 501.371 111.28H501.961L501.211 116H490.131Z" fill="black"/>
<path d="M292.682 153.18C291.642 153.18 290.565 152.85 289.452 152.19L288.662 153H288.252L287.882 147.93L288.422 147.82C288.822 149.387 289.349 150.523 290.002 151.23C290.662 151.937 291.532 152.29 292.612 152.29C293.519 152.29 294.235 152.073 294.762 151.64C295.289 151.2 295.552 150.607 295.552 149.86C295.552 149.273 295.369 148.75 295.002 148.29C294.642 147.823 294.049 147.357 293.222 146.89L291.692 146.08C290.445 145.407 289.552 144.737 289.012 144.07C288.472 143.403 288.202 142.627 288.202 141.74C288.202 140.94 288.399 140.227 288.792 139.6C289.185 138.967 289.722 138.47 290.402 138.11C291.089 137.743 291.859 137.56 292.712 137.56C293.879 137.56 294.895 137.97 295.762 138.79L296.372 137.75H296.802L296.982 142.12H296.412C296.099 140.873 295.645 139.953 295.052 139.36C294.465 138.76 293.715 138.46 292.802 138.46C292.062 138.46 291.475 138.657 291.042 139.05C290.615 139.443 290.402 139.983 290.402 140.67C290.402 141.29 290.605 141.843 291.012 142.33C291.425 142.817 292.119 143.317 293.092 143.83L294.582 144.63C295.602 145.17 296.339 145.77 296.792 146.43C297.252 147.09 297.482 147.847 297.482 148.7C297.482 149.547 297.269 150.31 296.842 150.99C296.422 151.663 295.849 152.197 295.122 152.59C294.402 152.983 293.589 153.18 292.682 153.18ZM303.445 153.21C302.445 153.21 301.715 152.98 301.255 152.52C300.795 152.053 300.565 151.38 300.565 150.5V143.26L299.085 142.95V142.51H302.605V149.7C302.605 150.573 302.758 151.173 303.065 151.5C303.378 151.827 303.871 151.99 304.545 151.99C304.971 151.99 305.388 151.89 305.795 151.69C306.201 151.483 306.581 151.163 306.935 150.73V143.26L305.465 142.95V142.51H308.975V151.48L310.335 151.96V152.23L307.215 153.21H307.045V151.38C306.011 152.6 304.811 153.21 303.445 153.21ZM314.299 153.21C313.586 153.21 313.006 152.987 312.559 152.54C312.119 152.093 311.899 151.513 311.899 150.8C311.899 150.213 312.079 149.707 312.439 149.28C312.799 148.853 313.379 148.48 314.179 148.16C314.986 147.833 316.049 147.537 317.369 147.27V145.4C317.369 144.553 317.252 143.96 317.019 143.62C316.792 143.28 316.399 143.11 315.839 143.11C315.286 143.11 314.846 143.243 314.519 143.51C314.192 143.777 314.029 144.137 314.029 144.59C314.029 144.717 314.036 144.843 314.049 144.97C314.069 145.09 314.079 145.207 314.079 145.32C314.079 145.66 313.976 145.94 313.769 146.16C313.569 146.38 313.312 146.49 312.999 146.49C312.712 146.49 312.479 146.397 312.299 146.21C312.126 146.023 312.039 145.78 312.039 145.48C312.039 145.047 312.226 144.603 312.599 144.15C312.979 143.69 313.479 143.297 314.099 142.97C314.926 142.53 315.822 142.31 316.789 142.31C317.982 142.31 318.766 142.657 319.139 143.35C319.246 143.577 319.316 143.863 319.349 144.21C319.389 144.557 319.409 145.137 319.409 145.95V150.42C319.409 151.067 319.459 151.507 319.559 151.74C319.666 151.973 319.862 152.09 320.149 152.09C320.476 152.09 320.792 151.903 321.099 151.53L321.459 151.87C321.132 152.343 320.799 152.687 320.459 152.9C320.126 153.107 319.736 153.21 319.289 153.21C318.249 153.21 317.629 152.617 317.429 151.43H317.369C316.989 151.977 316.529 152.41 315.989 152.73C315.449 153.05 314.886 153.21 314.299 153.21ZM315.299 151.94C315.712 151.94 316.099 151.833 316.459 151.62C316.819 151.4 317.122 151.097 317.369 150.71V147.89C316.476 148.063 315.772 148.253 315.259 148.46C314.752 148.667 314.392 148.92 314.179 149.22C313.972 149.513 313.869 149.883 313.869 150.33C313.869 150.843 313.989 151.24 314.229 151.52C314.476 151.8 314.832 151.94 315.299 151.94ZM332.734 153.21C331.707 153.21 330.797 152.973 330.004 152.5C329.21 152.02 328.587 151.37 328.134 150.55C327.687 149.723 327.464 148.793 327.464 147.76C327.464 146.72 327.687 145.79 328.134 144.97C328.587 144.15 329.21 143.503 330.004 143.03C330.797 142.55 331.707 142.31 332.734 142.31C333.76 142.31 334.667 142.55 335.454 143.03C336.247 143.503 336.87 144.15 337.324 144.97C337.777 145.79 338.004 146.72 338.004 147.76C338.004 148.793 337.777 149.723 337.324 150.55C336.87 151.37 336.247 152.02 335.454 152.5C334.667 152.973 333.76 153.21 332.734 153.21ZM332.714 152.29C333.687 152.29 334.434 151.873 334.954 151.04C335.474 150.2 335.734 149.1 335.734 147.74C335.734 146.387 335.477 145.297 334.964 144.47C334.45 143.637 333.707 143.22 332.734 143.22C331.767 143.22 331.024 143.637 330.504 144.47C329.99 145.303 329.734 146.4 329.734 147.76C329.734 149.113 329.99 150.207 330.504 151.04C331.017 151.873 331.754 152.29 332.714 152.29ZM344.799 153.21C344.299 153.21 343.812 153.13 343.339 152.97C342.866 152.803 342.432 152.577 342.039 152.29H341.929L340.919 153H340.569V138.36L339.099 137.82V137.54L342.389 136.57H342.619V143.66C343.466 142.76 344.486 142.31 345.679 142.31C346.546 142.31 347.306 142.523 347.959 142.95C348.612 143.37 349.122 143.957 349.489 144.71C349.862 145.457 350.049 146.327 350.049 147.32C350.049 148.433 349.819 149.437 349.359 150.33C348.899 151.217 348.272 151.92 347.479 152.44C346.686 152.953 345.792 153.21 344.799 153.21ZM344.749 152.47C345.356 152.47 345.882 152.28 346.329 151.9C346.782 151.513 347.132 150.977 347.379 150.29C347.632 149.597 347.759 148.793 347.759 147.88C347.759 146.5 347.492 145.417 346.959 144.63C346.432 143.843 345.706 143.45 344.779 143.45C344.332 143.45 343.926 143.543 343.559 143.73C343.192 143.917 342.879 144.17 342.619 144.49V149.98C342.619 150.727 342.812 151.33 343.199 151.79C343.586 152.243 344.102 152.47 344.749 152.47ZM351.559 153V152.56L353.059 152.25V144.1L351.599 143.55V143.26L354.799 142.3H355.019V144.4C355.499 143.727 355.973 143.207 356.439 142.84C356.906 142.473 357.346 142.29 357.759 142.29C358.126 142.29 358.436 142.417 358.689 142.67C358.943 142.917 359.069 143.217 359.069 143.57C359.069 143.897 358.959 144.173 358.739 144.4C358.519 144.62 358.246 144.73 357.919 144.73C357.586 144.73 357.326 144.607 357.139 144.36C357.006 144.207 356.893 144.103 356.799 144.05C356.706 143.99 356.599 143.96 356.479 143.96C356.306 143.96 356.089 144.067 355.829 144.28C355.576 144.487 355.333 144.77 355.099 145.13V152.25L357.159 152.56V153H351.559ZM362.6 153.21C361.886 153.21 361.306 152.987 360.86 152.54C360.42 152.093 360.2 151.513 360.2 150.8C360.2 150.213 360.38 149.707 360.74 149.28C361.1 148.853 361.68 148.48 362.48 148.16C363.286 147.833 364.35 147.537 365.67 147.27V145.4C365.67 144.553 365.553 143.96 365.32 143.62C365.093 143.28 364.7 143.11 364.14 143.11C363.586 143.11 363.146 143.243 362.82 143.51C362.493 143.777 362.33 144.137 362.33 144.59C362.33 144.717 362.336 144.843 362.35 144.97C362.37 145.09 362.38 145.207 362.38 145.32C362.38 145.66 362.276 145.94 362.07 146.16C361.87 146.38 361.613 146.49 361.3 146.49C361.013 146.49 360.78 146.397 360.6 146.21C360.426 146.023 360.34 145.78 360.34 145.48C360.34 145.047 360.526 144.603 360.9 144.15C361.28 143.69 361.78 143.297 362.4 142.97C363.226 142.53 364.123 142.31 365.09 142.31C366.283 142.31 367.066 142.657 367.44 143.35C367.546 143.577 367.616 143.863 367.65 144.21C367.69 144.557 367.71 145.137 367.71 145.95V150.42C367.71 151.067 367.76 151.507 367.86 151.74C367.966 151.973 368.163 152.09 368.45 152.09C368.776 152.09 369.093 151.903 369.4 151.53L369.76 151.87C369.433 152.343 369.1 152.687 368.76 152.9C368.426 153.107 368.036 153.21 367.59 153.21C366.55 153.21 365.93 152.617 365.73 151.43H365.67C365.29 151.977 364.83 152.41 364.29 152.73C363.75 153.05 363.186 153.21 362.6 153.21ZM363.6 151.94C364.013 151.94 364.4 151.833 364.76 151.62C365.12 151.4 365.423 151.097 365.67 150.71V147.89C364.776 148.063 364.073 148.253 363.56 148.46C363.053 148.667 362.693 148.92 362.48 149.22C362.273 149.513 362.17 149.883 362.17 150.33C362.17 150.843 362.29 151.24 362.53 151.52C362.776 151.8 363.133 151.94 363.6 151.94ZM380.654 153.21C379.688 153.21 378.838 152.99 378.104 152.55C377.378 152.103 376.811 151.483 376.404 150.69C376.004 149.89 375.804 148.967 375.804 147.92C375.804 146.807 376.028 145.83 376.474 144.99C376.928 144.15 377.558 143.493 378.364 143.02C379.178 142.547 380.118 142.31 381.184 142.31C382.504 142.31 383.514 142.693 384.214 143.46C384.921 144.227 385.288 145.35 385.314 146.83L385.174 146.95H377.974C377.968 147.077 377.964 147.203 377.964 147.33C377.964 150.23 379.091 151.68 381.344 151.68C382.811 151.68 383.934 151.147 384.714 150.08L385.084 150.31C384.738 151.23 384.174 151.943 383.394 152.45C382.621 152.957 381.708 153.21 380.654 153.21ZM380.984 142.98C380.138 142.98 379.461 143.273 378.954 143.86C378.448 144.44 378.134 145.27 378.014 146.35L383.024 146.17C383.071 145.997 383.094 145.733 383.094 145.38C383.094 143.78 382.391 142.98 380.984 142.98ZM386.706 153V152.56L388.196 152.25V144.12L386.726 143.57V143.28L389.886 142.31H390.146V143.95C390.692 143.43 391.289 143.027 391.936 142.74C392.582 142.453 393.219 142.31 393.846 142.31C395.232 142.31 396.079 142.873 396.386 144C396.899 143.44 397.492 143.02 398.166 142.74C398.839 142.453 399.519 142.31 400.206 142.31C401.099 142.31 401.752 142.553 402.166 143.04C402.579 143.527 402.799 144.293 402.826 145.34V152.27L404.306 152.56V153H399.326V152.56L400.796 152.27V146.1C400.796 145.153 400.652 144.483 400.366 144.09C400.086 143.69 399.609 143.49 398.936 143.49C397.982 143.49 397.172 143.883 396.506 144.67C396.526 144.85 396.536 145.043 396.536 145.25V152.27L398.016 152.56V153H393.026V152.56L394.506 152.27V146.16C394.506 145.213 394.356 144.533 394.056 144.12C393.762 143.7 393.289 143.49 392.636 143.49C391.716 143.49 390.919 143.87 390.246 144.63V152.25L391.716 152.56V153H386.706ZM415.971 153.21C415.471 153.21 414.984 153.13 414.511 152.97C414.038 152.803 413.604 152.577 413.211 152.29H413.101L412.091 153H411.741V138.36L410.271 137.82V137.54L413.561 136.57H413.791V143.66C414.638 142.76 415.658 142.31 416.851 142.31C417.718 142.31 418.478 142.523 419.131 142.95C419.784 143.37 420.294 143.957 420.661 144.71C421.034 145.457 421.221 146.327 421.221 147.32C421.221 148.433 420.991 149.437 420.531 150.33C420.071 151.217 419.444 151.92 418.651 152.44C417.858 152.953 416.964 153.21 415.971 153.21ZM415.921 152.47C416.528 152.47 417.054 152.28 417.501 151.9C417.954 151.513 418.304 150.977 418.551 150.29C418.804 149.597 418.931 148.793 418.931 147.88C418.931 146.5 418.664 145.417 418.131 144.63C417.604 143.843 416.878 143.45 415.951 143.45C415.504 143.45 415.098 143.543 414.731 143.73C414.364 143.917 414.051 144.17 413.791 144.49V149.98C413.791 150.727 413.984 151.33 414.371 151.79C414.758 152.243 415.274 152.47 415.921 152.47ZM428.241 153.21C427.215 153.21 426.305 152.973 425.511 152.5C424.718 152.02 424.095 151.37 423.641 150.55C423.195 149.723 422.971 148.793 422.971 147.76C422.971 146.72 423.195 145.79 423.641 144.97C424.095 144.15 424.718 143.503 425.511 143.03C426.305 142.55 427.215 142.31 428.241 142.31C429.268 142.31 430.175 142.55 430.961 143.03C431.755 143.503 432.378 144.15 432.831 144.97C433.285 145.79 433.511 146.72 433.511 147.76C433.511 148.793 433.285 149.723 432.831 150.55C432.378 151.37 431.755 152.02 430.961 152.5C430.175 152.973 429.268 153.21 428.241 153.21ZM428.221 152.29C429.195 152.29 429.941 151.873 430.461 151.04C430.981 150.2 431.241 149.1 431.241 147.74C431.241 146.387 430.985 145.297 430.471 144.47C429.958 143.637 429.215 143.22 428.241 143.22C427.275 143.22 426.531 143.637 426.011 144.47C425.498 145.303 425.241 146.4 425.241 147.76C425.241 149.113 425.498 150.207 426.011 151.04C426.525 151.873 427.261 152.29 428.221 152.29ZM437.717 153.21C437.004 153.21 436.424 152.987 435.977 152.54C435.537 152.093 435.317 151.513 435.317 150.8C435.317 150.213 435.497 149.707 435.857 149.28C436.217 148.853 436.797 148.48 437.597 148.16C438.404 147.833 439.467 147.537 440.787 147.27V145.4C440.787 144.553 440.67 143.96 440.437 143.62C440.21 143.28 439.817 143.11 439.257 143.11C438.704 143.11 438.264 143.243 437.937 143.51C437.61 143.777 437.447 144.137 437.447 144.59C437.447 144.717 437.454 144.843 437.467 144.97C437.487 145.09 437.497 145.207 437.497 145.32C437.497 145.66 437.394 145.94 437.187 146.16C436.987 146.38 436.73 146.49 436.417 146.49C436.13 146.49 435.897 146.397 435.717 146.21C435.544 146.023 435.457 145.78 435.457 145.48C435.457 145.047 435.644 144.603 436.017 144.15C436.397 143.69 436.897 143.297 437.517 142.97C438.344 142.53 439.24 142.31 440.207 142.31C441.4 142.31 442.184 142.657 442.557 143.35C442.664 143.577 442.734 143.863 442.767 144.21C442.807 144.557 442.827 145.137 442.827 145.95V150.42C442.827 151.067 442.877 151.507 442.977 151.74C443.084 151.973 443.28 152.09 443.567 152.09C443.894 152.09 444.21 151.903 444.517 151.53L444.877 151.87C444.55 152.343 444.217 152.687 443.877 152.9C443.544 153.107 443.154 153.21 442.707 153.21C441.667 153.21 441.047 152.617 440.847 151.43H440.787C440.407 151.977 439.947 152.41 439.407 152.73C438.867 153.05 438.304 153.21 437.717 153.21ZM438.717 151.94C439.13 151.94 439.517 151.833 439.877 151.62C440.237 151.4 440.54 151.097 440.787 150.71V147.89C439.894 148.063 439.19 148.253 438.677 148.46C438.17 148.667 437.81 148.92 437.597 149.22C437.39 149.513 437.287 149.883 437.287 150.33C437.287 150.843 437.407 151.24 437.647 151.52C437.894 151.8 438.25 151.94 438.717 151.94ZM448.954 153.21C448.527 153.21 448.054 153.167 447.534 153.08C447.02 153 446.57 152.897 446.184 152.77L446.054 149.56H446.574C446.747 151.553 447.584 152.55 449.084 152.55C449.664 152.55 450.127 152.39 450.474 152.07C450.827 151.743 451.004 151.317 451.004 150.79C451.004 150.35 450.874 149.973 450.614 149.66C450.354 149.34 449.904 149.017 449.264 148.69L448.434 148.28C447.58 147.853 446.97 147.407 446.604 146.94C446.237 146.467 446.054 145.897 446.054 145.23C446.054 144.297 446.377 143.577 447.024 143.07C447.677 142.563 448.607 142.31 449.814 142.31C450.28 142.31 450.73 142.343 451.164 142.41C451.604 142.47 451.947 142.553 452.194 142.66V145.4H451.734C451.54 143.773 450.784 142.96 449.464 142.96C448.95 142.96 448.537 143.1 448.224 143.38C447.917 143.653 447.764 144.027 447.764 144.5C447.764 144.913 447.897 145.267 448.164 145.56C448.437 145.853 448.897 146.157 449.544 146.47L450.454 146.91C451.24 147.297 451.807 147.723 452.154 148.19C452.5 148.657 452.674 149.247 452.674 149.96C452.674 150.953 452.34 151.743 451.674 152.33C451.007 152.917 450.1 153.21 448.954 153.21ZM459.577 153V152.56L461.067 152.25V144.12L459.597 143.57V143.28L462.757 142.31H463.017V143.95C463.563 143.43 464.16 143.027 464.807 142.74C465.453 142.453 466.09 142.31 466.717 142.31C468.103 142.31 468.95 142.873 469.257 144C469.77 143.44 470.363 143.02 471.037 142.74C471.71 142.453 472.39 142.31 473.077 142.31C473.97 142.31 474.623 142.553 475.037 143.04C475.45 143.527 475.67 144.293 475.697 145.34V152.27L477.177 152.56V153H472.197V152.56L473.667 152.27V146.1C473.667 145.153 473.523 144.483 473.237 144.09C472.957 143.69 472.48 143.49 471.807 143.49C470.853 143.49 470.043 143.883 469.377 144.67C469.397 144.85 469.407 145.043 469.407 145.25V152.27L470.887 152.56V153H465.897V152.56L467.377 152.27V146.16C467.377 145.213 467.227 144.533 466.927 144.12C466.633 143.7 466.16 143.49 465.507 143.49C464.587 143.49 463.79 143.87 463.117 144.63V152.25L464.587 152.56V153H459.577ZM480.92 153.21C480.207 153.21 479.627 152.987 479.18 152.54C478.74 152.093 478.52 151.513 478.52 150.8C478.52 150.213 478.7 149.707 479.06 149.28C479.42 148.853 480 148.48 480.8 148.16C481.607 147.833 482.67 147.537 483.99 147.27V145.4C483.99 144.553 483.873 143.96 483.64 143.62C483.413 143.28 483.02 143.11 482.46 143.11C481.907 143.11 481.467 143.243 481.14 143.51C480.813 143.777 480.65 144.137 480.65 144.59C480.65 144.717 480.657 144.843 480.67 144.97C480.69 145.09 480.7 145.207 480.7 145.32C480.7 145.66 480.597 145.94 480.39 146.16C480.19 146.38 479.933 146.49 479.62 146.49C479.333 146.49 479.1 146.397 478.92 146.21C478.747 146.023 478.66 145.78 478.66 145.48C478.66 145.047 478.847 144.603 479.22 144.15C479.6 143.69 480.1 143.297 480.72 142.97C481.547 142.53 482.443 142.31 483.41 142.31C484.603 142.31 485.387 142.657 485.76 143.35C485.867 143.577 485.937 143.863 485.97 144.21C486.01 144.557 486.03 145.137 486.03 145.95V150.42C486.03 151.067 486.08 151.507 486.18 151.74C486.287 151.973 486.483 152.09 486.77 152.09C487.097 152.09 487.413 151.903 487.72 151.53L488.08 151.87C487.753 152.343 487.42 152.687 487.08 152.9C486.747 153.107 486.357 153.21 485.91 153.21C484.87 153.21 484.25 152.617 484.05 151.43H483.99C483.61 151.977 483.15 152.41 482.61 152.73C482.07 153.05 481.507 153.21 480.92 153.21ZM481.92 151.94C482.333 151.94 482.72 151.833 483.08 151.62C483.44 151.4 483.743 151.097 483.99 150.71V147.89C483.097 148.063 482.393 148.253 481.88 148.46C481.373 148.667 481.013 148.92 480.8 149.22C480.593 149.513 480.49 149.883 480.49 150.33C480.49 150.843 480.61 151.24 480.85 151.52C481.097 151.8 481.453 151.94 481.92 151.94ZM484.28 139.56C483.96 139.56 483.637 139.497 483.31 139.37C482.99 139.237 482.67 139.107 482.35 138.98C482.037 138.847 481.723 138.78 481.41 138.78C480.783 138.78 480.437 139.033 480.37 139.54H479.87C479.87 138.833 480.027 138.267 480.34 137.84C480.66 137.407 481.07 137.19 481.57 137.19C481.883 137.19 482.203 137.25 482.53 137.37C482.863 137.483 483.193 137.6 483.52 137.72C483.847 137.833 484.16 137.89 484.46 137.89C485.027 137.89 485.367 137.64 485.48 137.14H485.98C485.98 137.847 485.823 138.427 485.51 138.88C485.197 139.333 484.787 139.56 484.28 139.56ZM494.257 153.21C493.23 153.21 492.32 152.973 491.527 152.5C490.734 152.02 490.11 151.37 489.657 150.55C489.21 149.723 488.987 148.793 488.987 147.76C488.987 146.72 489.21 145.79 489.657 144.97C490.11 144.15 490.734 143.503 491.527 143.03C492.32 142.55 493.23 142.31 494.257 142.31C495.284 142.31 496.19 142.55 496.977 143.03C497.77 143.503 498.394 144.15 498.847 144.97C499.3 145.79 499.527 146.72 499.527 147.76C499.527 148.793 499.3 149.723 498.847 150.55C498.394 151.37 497.77 152.02 496.977 152.5C496.19 152.973 495.284 153.21 494.257 153.21ZM494.237 152.29C495.21 152.29 495.957 151.873 496.477 151.04C496.997 150.2 497.257 149.1 497.257 147.74C497.257 146.387 497 145.297 496.487 144.47C495.974 143.637 495.23 143.22 494.257 143.22C493.29 143.22 492.547 143.637 492.027 144.47C491.514 145.303 491.257 146.4 491.257 147.76C491.257 149.113 491.514 150.207 492.027 151.04C492.54 151.873 493.277 152.29 494.237 152.29ZM504.423 153.21C503.996 153.21 503.523 153.167 503.003 153.08C502.489 153 502.039 152.897 501.653 152.77L501.523 149.56H502.043C502.216 151.553 503.053 152.55 504.553 152.55C505.133 152.55 505.596 152.39 505.943 152.07C506.296 151.743 506.473 151.317 506.473 150.79C506.473 150.35 506.343 149.973 506.083 149.66C505.823 149.34 505.373 149.017 504.733 148.69L503.903 148.28C503.049 147.853 502.439 147.407 502.073 146.94C501.706 146.467 501.523 145.897 501.523 145.23C501.523 144.297 501.846 143.577 502.493 143.07C503.146 142.563 504.076 142.31 505.283 142.31C505.749 142.31 506.199 142.343 506.633 142.41C507.073 142.47 507.416 142.553 507.663 142.66V145.4H507.203C507.009 143.773 506.253 142.96 504.933 142.96C504.419 142.96 504.006 143.1 503.693 143.38C503.386 143.653 503.233 144.027 503.233 144.5C503.233 144.913 503.366 145.267 503.633 145.56C503.906 145.853 504.366 146.157 505.013 146.47L505.923 146.91C506.709 147.297 507.276 147.723 507.623 148.19C507.969 148.657 508.143 149.247 508.143 149.96C508.143 150.953 507.809 151.743 507.143 152.33C506.476 152.917 505.569 153.21 504.423 153.21ZM511.704 153.21C511.284 153.21 510.944 153.073 510.684 152.8C510.43 152.52 510.304 152.187 510.304 151.8C510.304 151.387 510.43 151.047 510.684 150.78C510.944 150.507 511.28 150.37 511.694 150.37C512.134 150.37 512.484 150.507 512.744 150.78C513.01 151.047 513.144 151.387 513.144 151.8C513.144 152.187 513.01 152.52 512.744 152.8C512.484 153.073 512.137 153.21 511.704 153.21Z" fill="black"/>
</g>
<defs>
<filter id="filter0_d" x="164" y="32" width="478" height="151" filterUnits="userSpaceOnUse" color-interpolation-filters="sRGB">
<feFlood flood-opacity="0" result="BackgroundImageFix"/>
<feColorMatrix in="SourceAlpha" type="matrix" values="0 0 0 0 0 0 0 0 0 0 0 0 0 0 0 0 0 0 127 0"/>
<feOffset dx="5" dy="5"/>
<feColorMatrix type="matrix" values="0 0 0 0 0 0 0 0 0 0 0 0 0 0 0 0 0 0 0.45 0"/>
<feBlend mode="normal" in2="BackgroundImageFix" result="effect1_dropShadow"/>
<feBlend mode="normal" in="SourceGraphic" in2="effect1_dropShadow" result="shape"/>
</filter>
</defs>
</svg>
